<svg xmlns="http://www.w3.org/2000/svg" viewBox="0 0 1200 630" role="img" aria-label="Brightleaf Family Dental — calm, modern family and cosmetic dentistry in Franklin, Tennessee">
  <defs>
    <linearGradient id="ogBg" x1="0" y1="0" x2="1" y2="1">
      <stop offset="0" stop-color="#0A544E"/><stop offset="1" stop-color="#06322E"/>
    </linearGradient>
  </defs>
  <rect width="1200" height="630" fill="url(#ogBg)"/>
  <circle cx="1070" cy="120" r="220" fill="#0F766E" opacity="0.45"/>
  <circle cx="120" cy="560" r="180" fill="#0F766E" opacity="0.4"/>
  <circle cx="980" cy="500" r="90" fill="#F0AB40" opacity="0.18"/>
  <!-- logo mark -->
  <g transform="translate(96 88)">
    <rect width="116" height="116" rx="28" fill="#0F766E"/>
    <path d="M34 28h26c13.5 0 22 6.8 22 18 0 7.3-3.8 12.4-10 14.6 7.9 1.9 12.8 7.4 12.8 15.9 0 12.2-9.2 19.2-24.4 19.2H34Z M48.6 53.2h9.4c5.7 0 8.9-2.5 8.9-7.2 0-4.5-3.2-7-8.9-7h-9.4Z M48.6 81.7h10.8c6.2 0 9.6-2.8 9.6-7.8 0-5-3.5-7.7-9.9-7.7H48.6Z" fill="#FBFAF6"/>
    <circle cx="86" cy="30" r="11" fill="#F0AB40"/>
  </g>
  <text x="240" y="142" font-family="'Plus Jakarta Sans',Segoe UI,Arial,sans-serif" font-size="40" font-weight="800" fill="#FFFFFF">Brightleaf</text>
  <text x="240" y="180" font-family="'Plus Jakarta Sans',Segoe UI,Arial,sans-serif" font-size="20" font-weight="600" letter-spacing="4" fill="#D1F0E6">FAMILY DENTAL</text>
  <text x="96" y="332" font-family="'Plus Jakarta Sans',Segoe UI,Arial,sans-serif" font-size="76" font-weight="800" fill="#FFFFFF">A calm, modern</text>
  <text x="96" y="420" font-family="'Plus Jakarta Sans',Segoe UI,Arial,sans-serif" font-size="76" font-weight="800" fill="#FFFFFF">dental home for</text>
  <text x="96" y="508" font-family="Georgia,'Times New Roman',serif" font-size="76" font-style="italic" fill="#F0AB40">your whole family.</text>
  <text x="96" y="566" font-family="'Plus Jakarta Sans',Segoe UI,Arial,sans-serif" font-size="26" font-weight="600" fill="#D1F0E6">Franklin, Tennessee  ·  Now welcoming new patients</text>
</svg>
