<svg xmlns="http://www.w3.org/2000/svg" viewBox="0 0 500 440" role="img" aria-label="Illustration of a clear treatment plan being explained — a chart and checklist">
  <defs>
    <linearGradient id="scBg" x1="0" y1="0" x2="0" y2="1">
      <stop offset="0" stop-color="#EAF7F1"/><stop offset="1" stop-color="#F4FAF7"/>
    </linearGradient>
  </defs>
  <rect width="500" height="440" fill="url(#scBg)"/>
  <circle cx="76" cy="350" r="58" fill="#D1F0E6" opacity="0.55"/>
  <circle cx="420" cy="80" r="50" fill="#FCE7BE" opacity="0.7"/>
  <!-- screen / chart -->
  <rect x="78" y="92" width="240" height="186" rx="18" fill="#FFFFFF" stroke="#0F766E" stroke-width="4"/>
  <rect x="78" y="92" width="240" height="46" rx="18" fill="#0F766E"/>
  <rect x="78" y="120" width="240" height="18" fill="#0F766E"/>
  <circle cx="104" cy="115" r="7" fill="#D1F0E6"/>
  <circle cx="126" cy="115" r="7" fill="#F0AB40"/>
  <!-- bars -->
  <rect x="104" y="232" width="34" height="24" rx="6" fill="#D1F0E6"/>
  <rect x="150" y="206" width="34" height="50" rx="6" fill="#0F766E"/>
  <rect x="196" y="184" width="34" height="72" rx="6" fill="#0F766E"/>
  <rect x="242" y="160" width="34" height="96" rx="6" fill="#F0AB40"/>
  <path d="M104 192 l46-22 46-20 46-30" fill="none" stroke="#0A544E" stroke-width="4" stroke-linecap="round" stroke-linejoin="round" stroke-dasharray="2 9"/>
  <!-- checklist card -->
  <rect x="262" y="214" width="178" height="170" rx="18" fill="#FBFAF6" stroke="#0F766E" stroke-width="4"/>
  <g>
    <circle cx="292" cy="252" r="13" fill="#0F766E"/>
    <path d="M286 252 l4 4 9-9" fill="none" stroke="#FBFAF6" stroke-width="3.4" stroke-linecap="round" stroke-linejoin="round"/>
    <rect x="314" y="246" width="100" height="12" rx="6" fill="#D1F0E6"/>
  </g>
  <g>
    <circle cx="292" cy="296" r="13" fill="#0F766E"/>
    <path d="M286 296 l4 4 9-9" fill="none" stroke="#FBFAF6" stroke-width="3.4" stroke-linecap="round" stroke-linejoin="round"/>
    <rect x="314" y="290" width="86" height="12" rx="6" fill="#D1F0E6"/>
  </g>
  <g>
    <circle cx="292" cy="340" r="13" fill="#F0AB40"/>
    <path d="M286 340 l4 4 9-9" fill="none" stroke="#FBFAF6" stroke-width="3.4" stroke-linecap="round" stroke-linejoin="round"/>
    <rect x="314" y="334" width="100" height="12" rx="6" fill="#EAD9B6"/>
  </g>
  <!-- speech dot -->
  <circle cx="400" cy="116" r="30" fill="#0F766E"/>
  <path d="M388 152 l6-22 18 8 Z" fill="#0F766E"/>
  <circle cx="389" cy="116" r="4.5" fill="#FBFAF6"/>
  <circle cx="400" cy="116" r="4.5" fill="#FBFAF6"/>
  <circle cx="411" cy="116" r="4.5" fill="#FBFAF6"/>
</svg>
