<svg xmlns="http://www.w3.org/2000/svg" viewBox="0 0 500 440" role="img" aria-label="Illustration of bright, modern dental care — a healthy tooth with a clean checkmark">
  <defs>
    <linearGradient id="stBg" x1="0" y1="0" x2="0" y2="1">
      <stop offset="0" stop-color="#EAF7F1"/><stop offset="1" stop-color="#F4FAF7"/>
    </linearGradient>
  </defs>
  <rect width="500" height="440" fill="url(#stBg)"/>
  <circle cx="86" cy="78" r="54" fill="#D1F0E6" opacity="0.6"/>
  <circle cx="430" cy="356" r="68" fill="#D1F0E6" opacity="0.45"/>
  <circle cx="250" cy="220" r="138" fill="#FFFFFF"/>
  <circle cx="250" cy="220" r="138" fill="none" stroke="#D1F0E6" stroke-width="3"/>
  <!-- tooth -->
  <path d="M250 132 c-30-26-72-28-92-6 -24 27-14 78 -2 116 9 30 8 74 30 88 16 10 22-22 28-50 4-19 13-25 16-25 s12 6 16 25 c6 28 12 60 28 50 22-14 21-58 30-88 12-38 22-89 -2-116 -20-22-62-20-92 6 Z" fill="#FBFAF6" stroke="#0F766E" stroke-width="6" stroke-linejoin="round"/>
  <path d="M214 168 c8-12 26-18 40-12" fill="none" stroke="#D1F0E6" stroke-width="9" stroke-linecap="round"/>
  <!-- sparkles -->
  <path d="M338 150 l7 18 18 7 -18 7 -7 18 -7-18 -18-7 18-7 Z" fill="#F0AB40"/>
  <path d="M158 286 l5 12 12 5 -12 5 -5 12 -5-12 -12-5 12-5 Z" fill="#F0AB40"/>
  <!-- check badge -->
  <circle cx="340" cy="296" r="34" fill="#0F766E"/>
  <path d="M326 296 l9 9 19-19" fill="none" stroke="#FBFAF6" stroke-width="7" stroke-linecap="round" stroke-linejoin="round"/>
</svg>
