<svg xmlns="http://www.w3.org/2000/svg" viewBox="0 0 400 300" role="img" aria-label="Illustrative diagram of an even, balanced smile after cosmetic bonding and veneers">
  <defs><linearGradient id="ca" x1="0" y1="0" x2="0" y2="1"><stop offset="0" stop-color="#EAF7F1"/><stop offset="1" stop-color="#F4FAF7"/></linearGradient></defs>
  <rect width="400" height="300" fill="url(#ca)"/>
  <circle cx="58" cy="56" r="40" fill="#D1F0E6" opacity="0.55"/>
  <circle cx="350" cy="248" r="48" fill="#D1F0E6" opacity="0.4"/>
  <path d="M36 150 Q200 116 364 150 L364 124 Q200 90 36 124 Z" fill="#BDE9D9"/>
  <g stroke="#0F766E" stroke-width="2.5" fill="#FFFFFF">
    <rect x="56" y="126" width="30" height="86" rx="15"/>
    <rect x="99" y="126" width="30" height="86" rx="15"/>
    <rect x="142" y="126" width="30" height="86" rx="15"/>
    <rect x="185" y="126" width="30" height="86" rx="15"/>
    <rect x="228" y="126" width="30" height="86" rx="15"/>
    <rect x="271" y="126" width="30" height="86" rx="15"/>
    <rect x="314" y="126" width="30" height="86" rx="15"/>
  </g>
  <path d="M330 96 l5 13 13 5 -13 5 -5 13 -5-13 -13-5 13-5 Z" fill="#F0AB40"/>
  <text x="200" y="266" text-anchor="middle" font-family="'Plus Jakarta Sans',Segoe UI,sans-serif" font-size="17" font-weight="700" fill="#0F766E">After — even &amp; balanced</text>
</svg>
