<svg xmlns="http://www.w3.org/2000/svg" viewBox="0 0 400 300" role="img" aria-label="Illustrative diagram of bright, white teeth after professional whitening">
  <defs><linearGradient id="wa" x1="0" y1="0" x2="0" y2="1"><stop offset="0" stop-color="#EAF7F1"/><stop offset="1" stop-color="#F4FAF7"/></linearGradient></defs>
  <rect width="400" height="300" fill="url(#wa)"/>
  <circle cx="58" cy="56" r="40" fill="#D1F0E6" opacity="0.55"/>
  <circle cx="350" cy="248" r="48" fill="#D1F0E6" opacity="0.4"/>
  <path d="M36 150 Q200 116 364 150 L364 124 Q200 90 36 124 Z" fill="#BDE9D9"/>
  <g stroke="#0F766E" stroke-width="2.5" fill="#FFFFFF">
    <rect x="56" y="126" width="30" height="86" rx="15"/>
    <rect x="99" y="126" width="30" height="86" rx="15"/>
    <rect x="142" y="126" width="30" height="86" rx="15"/>
    <rect x="185" y="126" width="30" height="86" rx="15"/>
    <rect x="228" y="126" width="30" height="86" rx="15"/>
    <rect x="271" y="126" width="30" height="86" rx="15"/>
    <rect x="314" y="126" width="30" height="86" rx="15"/>
  </g>
  <g fill="#D1F0E6"><rect x="64" y="138" width="8" height="40" rx="4"/><rect x="193" y="138" width="8" height="40" rx="4"/><rect x="322" y="138" width="8" height="40" rx="4"/></g>
  <path d="M328 92 l6 15 15 6 -15 6 -6 15 -6-15 -15-6 15-6 Z" fill="#F0AB40"/>
  <path d="M70 100 l4 10 10 4 -10 4 -4 10 -4-10 -10-4 10-4 Z" fill="#F0AB40"/>
  <text x="200" y="266" text-anchor="middle" font-family="'Plus Jakarta Sans',Segoe UI,sans-serif" font-size="17" font-weight="700" fill="#0F766E">After — bright &amp; even</text>
</svg>
