<svg xmlns="http://www.w3.org/2000/svg" viewBox="0 0 48 48" role="img" aria-label="Red Oak Mobile Detailing mark">
  <rect x="22.3" y="2.5" width="3.4" height="7" rx="1.7" fill="#8E2A1E"/>
  <path d="M11.4 19.6 H36.6 C36.6 19.6 35.4 45 24 45 C12.6 45 11.4 19.6 11.4 19.6 Z" fill="#B23A2B"/>
  <path d="M16.8 23.5 C15.6 30.5 17.4 38.4 21.6 41.6" stroke="#FAF5EC" stroke-opacity="0.5" stroke-width="2.6" fill="none" stroke-linecap="round"/>
  <path d="M8.7 20.2 C8.7 11.9 15.6 6.4 24 6.4 C32.4 6.4 39.3 11.9 39.3 20.2 C39.3 22 37.9 23 36.1 23 H11.9 C10.1 23 8.7 22 8.7 20.2 Z" fill="#8E2A1E"/>
  <circle cx="17" cy="14.6" r="1.5" fill="#FAF5EC" fill-opacity="0.32"/>
  <circle cx="24" cy="12.3" r="1.5" fill="#FAF5EC" fill-opacity="0.32"/>
  <circle cx="31" cy="14.6" r="1.5" fill="#FAF5EC" fill-opacity="0.32"/>
  <circle cx="20.5" cy="18.6" r="1.5" fill="#FAF5EC" fill-opacity="0.32"/>
  <circle cx="27.5" cy="18.6" r="1.5" fill="#FAF5EC" fill-opacity="0.32"/>
</svg>
